<svg xmlns="http://www.w3.org/2000/svg" xmlns:xlink="http://www.w3.org/1999/xlink" width="500" zoomAndPan="magnify" viewBox="0 0 375 374.999991" height="500" preserveAspectRatio="xMidYMid meet" version="1.0"><defs><clipPath id="dd941f5302"><path d="M 15.234375 0 L 302 0 L 302 375 L 15.234375 375 Z M 15.234375 0 " clip-rule="nonzero"/></clipPath></defs><path fill="#fff" d="M 97.472656 227.796875 L 68.042969 227.796875 C 60.980469 227.796875 55.203125 233.578125 55.203125 240.648438 L 55.203125 270.097656 C 55.203125 277.167969 60.980469 282.949219 68.042969 282.949219 L 97.472656 282.949219 C 104.535156 282.949219 110.3125 277.167969 110.3125 270.097656 L 110.3125 240.648438 C 110.3125 233.523438 104.535156 227.796875 97.472656 227.796875 Z M 101.75 270.097656 C 101.75 272.453125 99.824219 274.382812 97.472656 274.382812 L 68.042969 274.382812 C 65.6875 274.382812 63.761719 272.453125 63.761719 270.097656 L 63.761719 240.648438 C 63.761719 238.289062 65.6875 236.363281 68.042969 236.363281 L 97.472656 236.363281 C 99.824219 236.363281 101.75 238.289062 101.75 240.648438 Z M 101.75 270.097656 " fill-opacity="1" fill-rule="nonzero"/><path fill="#fff" d="M 260.714844 110.898438 L 135.621094 110.898438 C 132.089844 110.898438 129.199219 113.789062 129.199219 117.324219 C 129.199219 120.859375 132.089844 123.75 135.621094 123.75 L 260.714844 123.75 C 264.246094 123.75 267.136719 120.859375 267.136719 117.324219 C 267.136719 113.789062 264.246094 110.898438 260.714844 110.898438 Z M 260.714844 110.898438 " fill-opacity="1" fill-rule="nonzero"/><path fill="#fff" d="M 267.136719 189.242188 C 267.136719 185.707031 264.246094 182.816406 260.714844 182.816406 L 135.621094 182.816406 C 132.089844 182.816406 129.199219 185.707031 129.199219 189.242188 C 129.199219 192.773438 132.089844 195.667969 135.621094 195.667969 L 260.714844 195.667969 C 264.246094 195.667969 267.136719 192.773438 267.136719 189.242188 Z M 267.136719 189.242188 " fill-opacity="1" fill-rule="nonzero"/><path fill="#fff" d="M 125.5625 129.210938 C 123.582031 127.875 120.960938 128.410156 119.621094 130.390625 L 104.105469 153.578125 C 102.179688 152.398438 99.933594 151.757812 97.472656 151.757812 L 68.042969 151.757812 C 65.582031 151.757812 63.226562 152.453125 61.25 153.683594 L 60.820312 153.09375 C 59.484375 151.113281 56.808594 150.632812 54.882812 151.96875 C 52.902344 153.308594 52.421875 155.988281 53.757812 157.914062 L 55.738281 160.859375 C 55.363281 162.039062 55.148438 163.324219 55.148438 164.660156 L 55.148438 194.113281 C 55.148438 201.183594 60.925781 206.964844 67.988281 206.964844 L 97.417969 206.964844 C 104.480469 206.964844 110.257812 201.183594 110.257812 194.113281 L 110.257812 164.660156 C 110.257812 163.269531 110.042969 161.929688 109.617188 160.699219 L 126.683594 135.210938 C 128.023438 133.175781 127.488281 130.496094 125.5625 129.210938 Z M 68.042969 160.324219 L 97.472656 160.324219 C 98.113281 160.324219 98.753906 160.484375 99.289062 160.753906 L 85.699219 181.101562 C 84.898438 182.277344 83.882812 182.921875 82.8125 182.921875 C 81.742188 182.921875 80.722656 182.277344 79.921875 181.15625 L 66.117188 160.859375 C 66.652344 160.484375 67.292969 160.324219 68.042969 160.324219 Z M 101.75 194.058594 C 101.75 196.414062 99.824219 198.34375 97.472656 198.34375 L 68.042969 198.34375 C 65.6875 198.34375 63.761719 196.414062 63.761719 194.058594 L 63.761719 172.585938 L 72.804688 185.921875 C 75.214844 189.453125 78.796875 191.4375 82.757812 191.4375 C 82.757812 191.4375 82.8125 191.4375 82.8125 191.4375 C 86.769531 191.4375 90.410156 189.402344 92.761719 185.8125 L 101.699219 172.425781 L 101.699219 194.058594 Z M 101.75 194.058594 " fill-opacity="1" fill-rule="nonzero"/><path fill="#fff" d="M 125.5625 54.78125 C 123.582031 53.441406 120.960938 53.976562 119.621094 55.957031 L 104.800781 78.019531 C 102.714844 76.574219 100.199219 75.664062 97.417969 75.664062 L 67.988281 75.664062 C 65.15625 75.664062 62.53125 76.574219 60.445312 78.128906 C 59.054688 76.574219 56.648438 76.253906 54.882812 77.484375 C 52.902344 78.824219 52.421875 81.5 53.757812 83.429688 L 55.46875 85.890625 C 55.308594 86.75 55.203125 87.605469 55.203125 88.515625 L 55.203125 117.96875 C 55.203125 125.035156 60.980469 130.820312 68.042969 130.820312 L 97.472656 130.820312 C 104.535156 130.820312 110.3125 125.035156 110.3125 117.96875 L 110.3125 88.515625 C 110.3125 87.550781 110.207031 86.585938 109.992188 85.675781 L 126.738281 60.671875 C 128.023438 58.742188 127.488281 56.066406 125.5625 54.78125 Z M 97.472656 84.285156 C 98.433594 84.285156 99.34375 84.605469 100.09375 85.195312 L 85.699219 106.667969 C 84.898438 107.847656 83.882812 108.488281 82.8125 108.488281 C 81.742188 108.488281 80.722656 107.847656 79.921875 106.722656 L 65.367188 85.300781 C 66.117188 84.714844 67.027344 84.339844 68.042969 84.339844 L 97.472656 84.339844 Z M 101.75 118.019531 C 101.75 120.375 99.824219 122.304688 97.472656 122.304688 L 68.042969 122.304688 C 65.6875 122.304688 63.761719 120.375 63.761719 118.019531 L 63.761719 98.152344 L 72.804688 111.488281 C 75.214844 115.023438 78.796875 117.003906 82.757812 117.003906 C 82.757812 117.003906 82.8125 117.003906 82.8125 117.003906 C 86.769531 117.003906 90.410156 114.96875 92.761719 111.378906 L 101.699219 97.992188 L 101.699219 118.019531 Z M 101.75 118.019531 " fill-opacity="1" fill-rule="nonzero"/><path fill="#fff" d="M 344.554688 118.34375 L 335.03125 113.738281 C 324.546875 108.648438 311.8125 113.039062 306.730469 123.535156 L 296.1875 145.277344 L 231.125 279.148438 C 229.308594 282.84375 228.289062 286.804688 228.078125 290.875 L 225.667969 337.570312 C 225.5625 340.085938 226.953125 342.496094 229.199219 343.621094 C 230.054688 344.050781 231.019531 344.261719 231.980469 344.261719 C 233.480469 344.261719 234.980469 343.726562 236.15625 342.710938 L 271.363281 311.972656 C 274.464844 309.296875 276.925781 306.03125 278.746094 302.335938 L 343.808594 168.355469 L 354.347656 146.667969 C 359.484375 136.121094 355.097656 123.429688 344.554688 118.34375 Z M 318.179688 129.050781 C 320.210938 124.820312 325.347656 123.054688 329.523438 125.144531 L 339.046875 129.746094 C 343.273438 131.78125 345.039062 136.921875 342.953125 141.101562 L 335.191406 157.109375 L 310.367188 145.0625 Z M 263.015625 302.441406 L 239.097656 323.324219 L 240.757812 291.570312 C 240.863281 289.160156 241.453125 286.859375 242.523438 284.71875 L 242.628906 284.503906 L 267.457031 296.550781 L 267.347656 296.765625 C 266.277344 298.960938 264.835938 300.835938 263.015625 302.441406 Z M 271.363281 288.464844 L 268.097656 286.859375 L 246.589844 276.363281 L 303.144531 159.949219 L 327.96875 171.996094 Z M 271.363281 288.464844 " fill-opacity="1" fill-rule="nonzero"/><path fill="#fff" d="M 135.621094 254.890625 C 132.089844 254.890625 129.199219 257.78125 129.199219 261.316406 C 129.199219 264.851562 132.089844 267.742188 135.621094 267.742188 L 221.65625 267.742188 C 225.1875 267.742188 228.078125 264.851562 228.078125 261.316406 C 228.078125 257.78125 225.1875 254.890625 221.65625 254.890625 Z M 135.621094 254.890625 " fill-opacity="1" fill-rule="nonzero"/><g clip-path="url(#dd941f5302)"><path fill="#fff" d="M 294.851562 290.070312 C 291.371094 290.070312 288.535156 292.910156 288.535156 296.390625 L 288.535156 343.886719 C 288.535156 354.007812 280.351562 362.253906 270.183594 362.253906 L 46.214844 362.253906 C 36.101562 362.253906 27.863281 354.0625 27.863281 343.886719 L 27.863281 31.113281 C 27.863281 20.992188 36.046875 12.746094 46.214844 12.746094 L 270.183594 12.746094 C 280.296875 12.746094 288.535156 20.9375 288.535156 31.113281 L 288.535156 117.859375 C 288.535156 121.339844 291.371094 124.179688 294.851562 124.179688 C 298.328125 124.179688 301.164062 121.339844 301.164062 117.859375 L 301.164062 31.113281 C 301.164062 13.976562 287.304688 0.105469 270.183594 0.105469 L 46.214844 0.105469 C 29.09375 0.105469 15.234375 13.976562 15.234375 31.113281 L 15.234375 343.886719 C 15.234375 361.023438 29.09375 374.894531 46.214844 374.894531 L 270.183594 374.894531 C 287.304688 374.894531 301.164062 361.023438 301.164062 343.886719 L 301.164062 296.390625 C 301.164062 292.910156 298.328125 290.070312 294.851562 290.070312 Z M 294.851562 290.070312 " fill-opacity="1" fill-rule="nonzero"/></g></svg>